<?xml version="1.0" encoding="UTF-8"?>
<svg xmlns="http://www.w3.org/2000/svg" xmlns:xlink="http://www.w3.org/1999/xlink" width="612pt" height="654.4pt" viewBox="0 0 612 654.4" version="1.1">
<defs>
<clipPath id="clip1">
  <path d="M 0 0 L 612 0 L 612 654.398438 L 0 654.398438 Z M 0 0 "/>
</clipPath>
</defs>
<g id="surface1">
<g clip-path="url(#clip1)" clip-rule="nonzero">
<path style=" stroke:none;fill-rule:evenodd;fill:rgb(100%,100%,100%);fill-opacity:1;" d="M 0 654.320313 L 632.261719 654.320313 L 632.261719 -0.0429688 L 0 -0.0429688 Z M 0 654.320313 "/>
</g>
<path style=" stroke:none;fill-rule:evenodd;fill:rgb(5.883789%,23.143005%,57.226563%);fill-opacity:1;" d="M 65.03125 324.507813 C 63.671875 325.453125 62.027344 325.996094 60.28125 325.996094 C 55.695313 325.996094 51.976563 322.28125 51.976563 317.691406 C 51.976563 317.28125 52.007813 316.867188 52.066406 316.453125 L 52.085938 316.324219 L 52.121094 316.199219 C 58.765625 291.789063 80.984375 274.839844 106.277344 274.839844 C 137.273438 274.839844 162.40625 299.984375 162.40625 330.980469 C 162.40625 361.972656 137.273438 387.117188 106.277344 387.117188 C 80.046875 387.117188 57.28125 368.902344 51.527344 343.355469 L 51.5 343.234375 L 51.484375 343.105469 C 51.453125 342.804688 51.433594 342.496094 51.433594 342.191406 C 51.433594 337.601563 55.148438 333.871094 59.742188 333.871094 C 63.519531 333.871094 66.824219 336.441406 67.785156 340.113281 C 72.007813 357.894531 87.972656 370.492188 106.277344 370.492188 C 128.101563 370.492188 145.828125 352.816406 145.828125 330.980469 C 145.828125 309.144531 128.101563 291.464844 106.277344 291.464844 C 88.636719 291.464844 73.097656 303.160156 68.25 320.085938 C 67.460938 321.988281 66.386719 323.460938 65.03125 324.507813 Z M 65.03125 324.507813 "/>
<path style=" stroke:none;fill-rule:evenodd;fill:rgb(5.883789%,23.143005%,57.226563%);fill-opacity:1;" d="M 170.703125 291.472656 L 265.570313 291.472656 L 265.570313 274.847656 L 170.703125 274.847656 Z M 170.703125 291.472656 "/>
<path style=" stroke:none;fill-rule:evenodd;fill:rgb(5.883789%,23.143005%,57.226563%);fill-opacity:1;" d="M 226.4375 378.808594 C 226.4375 383.398438 222.722656 387.117188 218.136719 387.117188 C 213.554688 387.117188 209.835938 383.398438 209.835938 378.808594 L 209.835938 296.847656 C 209.824219 293.878906 207.414063 291.472656 204.4375 291.472656 L 205.84375 291.472656 L 205.84375 291.320313 L 209.835938 291.320313 L 209.835938 288.777344 L 226.4375 288.777344 L 226.4375 291.328125 L 230.414063 291.328125 L 230.414063 291.472656 L 231.835938 291.472656 C 228.863281 291.472656 226.449219 293.878906 226.4375 296.847656 L 226.4375 291.613281 Z M 265.570313 274.847656 C 270.152344 274.847656 273.871094 278.566406 273.871094 283.15625 C 273.871094 287.746094 270.152344 291.472656 265.570313 291.472656 C 260.988281 291.472656 257.269531 287.746094 257.269531 283.15625 C 257.269531 278.566406 260.988281 274.847656 265.570313 274.847656 Z M 170.703125 274.847656 C 175.289063 274.847656 179.007813 278.566406 179.007813 283.15625 C 179.007813 287.746094 175.289063 291.472656 170.703125 291.472656 C 166.121094 291.472656 162.40625 287.746094 162.40625 283.15625 C 162.40625 278.566406 166.121094 274.847656 170.703125 274.847656 Z M 170.703125 274.847656 "/>
<path style=" stroke:none;fill-rule:evenodd;fill:rgb(5.883789%,23.143005%,57.226563%);fill-opacity:1;" d="M 287.46875 324.511719 C 286.109375 325.460938 284.460938 326.003906 282.71875 326.003906 C 278.128906 326.003906 274.410156 322.285156 274.410156 317.699219 C 274.410156 317.285156 274.441406 316.871094 274.5 316.460938 L 274.519531 316.328125 L 274.558594 316.203125 C 281.199219 291.796875 303.421875 274.84375 328.710938 274.84375 C 359.707031 274.84375 384.839844 299.988281 384.839844 330.984375 C 384.839844 361.980469 359.710938 387.121094 328.710938 387.121094 C 302.484375 387.121094 279.714844 368.90625 273.964844 343.363281 L 273.933594 343.238281 L 273.921875 343.113281 C 273.886719 342.808594 273.871094 342.503906 273.871094 342.195313 C 273.871094 337.605469 277.585938 333.878906 282.175781 333.878906 C 285.957031 333.878906 289.261719 336.445313 290.222656 340.117188 C 294.445313 357.898438 310.410156 370.496094 328.710938 370.496094 C 350.539063 370.496094 368.265625 352.820313 368.265625 330.984375 C 368.265625 309.148438 350.539063 291.472656 328.710938 291.472656 C 311.070313 291.472656 295.535156 303.164063 290.683594 320.089844 C 289.894531 321.992188 288.824219 323.464844 287.46875 324.511719 Z M 287.46875 324.511719 "/>
<path style=" stroke:none;fill-rule:evenodd;fill:rgb(5.883789%,23.143005%,57.226563%);fill-opacity:1;" d="M 490.683594 324.511719 C 492.046875 325.460938 493.691406 326.003906 495.4375 326.003906 C 500.023438 326.003906 503.742188 322.285156 503.742188 317.699219 C 503.742188 317.285156 503.710938 316.871094 503.652344 316.460938 L 503.632813 316.328125 L 503.597656 316.203125 C 496.953125 291.796875 474.734375 274.84375 449.441406 274.84375 C 418.445313 274.84375 393.316406 299.988281 393.3125 330.980469 L 393.3125 430.480469 C 393.3125 435.070313 397.03125 438.789063 401.613281 438.789063 C 406.195313 438.789063 409.914063 435.070313 409.914063 430.480469 L 409.914063 370.828125 C 420.058594 380.898438 434.023438 387.121094 449.441406 387.121094 C 475.671875 387.121094 498.4375 368.90625 504.191406 343.363281 L 504.21875 343.238281 L 504.230469 343.113281 C 504.265625 342.808594 504.28125 342.503906 504.28125 342.195313 C 504.28125 337.605469 500.566406 333.878906 495.976563 333.878906 C 492.199219 333.878906 488.890625 336.445313 487.929688 340.117188 C 483.707031 357.898438 467.742188 370.496094 449.441406 370.496094 C 428.050781 370.496094 410.597656 353.515625 409.914063 332.28125 L 409.914063 330.980469 L 409.890625 330.980469 C 409.890625 309.148438 427.617188 291.472656 449.441406 291.472656 C 467.082031 291.472656 482.621094 303.164063 487.46875 320.089844 C 488.257813 321.992188 489.332031 323.464844 490.683594 324.511719 Z M 490.683594 324.511719 "/>
<path style=" stroke:none;fill-rule:evenodd;fill:rgb(5.883789%,23.143005%,57.226563%);fill-opacity:1;" d="M 496.292969 191.4375 C 512.046875 192.703125 523.792969 206.511719 522.519531 222.265625 C 521.796875 231.234375 517.011719 238.898438 510.113281 243.605469 C 511.835938 243.261719 513.632813 243.148438 515.46875 243.296875 C 526.105469 244.15625 534.035156 253.472656 533.175781 264.109375 C 532.507813 272.390625 526.707031 279.027344 519.148438 281.15625 C 525.828125 282.175781 530.679688 288.203125 530.125 295.039063 C 529.597656 301.609375 524.269531 306.640625 517.863281 306.976563 C 521.011719 308.300781 523.101563 311.433594 522.824219 314.890625 C 522.46875 319.253906 518.496094 322.492188 513.945313 322.121094 C 513.136719 322.058594 512.363281 321.882813 511.640625 321.613281 C 512.980469 322.765625 513.765625 324.480469 513.617188 326.324219 C 513.363281 329.453125 510.507813 331.785156 507.238281 331.523438 C 505.628906 331.390625 504.21875 330.660156 503.234375 329.574219 C 503.246094 329.761719 503.246094 329.953125 503.230469 330.144531 C 503.066406 332.203125 501.191406 333.730469 499.042969 333.558594 C 497.515625 333.433594 496.261719 332.480469 495.726563 331.199219 C 495.457031 332.578125 494.136719 333.5625 492.640625 333.441406 C 491.039063 333.3125 489.835938 331.960938 489.960938 330.421875 C 490.085938 328.886719 491.488281 327.746094 493.089844 327.871094 C 494.144531 327.960938 495.027344 328.570313 495.46875 329.414063 C 495.6875 327.414063 497.535156 325.9375 499.644531 326.109375 C 500.507813 326.179688 501.28125 326.511719 501.886719 327.019531 C 501.769531 326.488281 501.726563 325.933594 501.769531 325.367188 C 502.023438 322.234375 504.882813 319.90625 508.152344 320.164063 C 508.609375 320.203125 509.050781 320.289063 509.46875 320.414063 C 507.378906 318.824219 506.125 316.296875 506.34375 313.5625 C 506.644531 309.839844 509.582031 306.9375 513.265625 306.394531 C 507.605469 304.617188 503.71875 299.113281 504.21875 292.953125 C 504.636719 287.769531 508.042969 283.539063 512.609375 281.828125 C 512.527344 281.820313 512.445313 281.816406 512.363281 281.8125 C 501.726563 280.953125 493.796875 271.632813 494.65625 260.996094 C 495.101563 255.492188 497.816406 250.710938 501.808594 247.496094 C 498.609375 248.40625 495.199219 248.773438 491.6875 248.488281 C 475.933594 247.21875 464.1875 233.414063 465.460938 217.660156 C 466.734375 201.90625 480.539063 190.164063 496.292969 191.4375 Z M 496.292969 191.4375 "/>
<path style=" stroke:none;fill-rule:evenodd;fill:rgb(77.734375%,9.008789%,0%);fill-opacity:1;" d="M 566.886719 374.480469 C 563.609375 384.632813 552.71875 390.210938 542.566406 386.929688 C 534.660156 384.378906 529.53125 377.203125 529.195313 369.363281 C 526.667969 375.628906 519.6875 378.964844 513.15625 376.855469 C 506.890625 374.828125 503.21875 368.492188 504.363281 362.183594 C 502.347656 364.941406 498.820313 366.253906 495.519531 365.1875 C 491.355469 363.84375 489.117188 359.234375 490.523438 354.886719 C 490.785156 354.074219 491.15625 353.328125 491.617188 352.660156 C 490.222656 353.640625 488.441406 353.980469 486.738281 353.433594 C 483.800781 352.484375 482.21875 349.226563 483.210938 346.160156 C 483.695313 344.65625 484.707031 343.476563 485.960938 342.777344 C 485.695313 342.753906 485.433594 342.703125 485.171875 342.617188 C 483.210938 341.984375 482.152344 339.808594 482.8125 337.761719 C 483.285156 336.300781 484.5 335.300781 485.871094 335.074219 C 484.59375 334.492188 483.9375 332.980469 484.398438 331.554688 C 484.894531 330.023438 486.484375 329.164063 487.949219 329.636719 C 489.417969 330.113281 490.207031 331.738281 489.714844 333.269531 C 489.390625 334.277344 488.589844 334.992188 487.664063 335.230469 C 489.566406 335.902344 490.574219 338.039063 489.925781 340.054688 C 489.652344 340.898438 489.132813 341.589844 488.476563 342.066406 C 489.089844 342.039063 489.710938 342.121094 490.324219 342.324219 C 493.265625 343.273438 494.84375 346.53125 493.855469 349.597656 C 493.710938 350.050781 493.515625 350.476563 493.28125 350.867188 C 495.304688 349.242188 498.019531 348.621094 500.597656 349.453125 C 504.148438 350.601563 506.300781 354.132813 505.984375 357.839844 C 509.011719 352.742188 515.261719 350.222656 521.144531 352.121094 C 526.09375 353.71875 529.425781 358.007813 530.046875 362.847656 C 530.070313 362.769531 530.09375 362.6875 530.117188 362.609375 C 533.398438 352.453125 544.289063 346.878906 554.441406 350.15625 C 564.59375 353.433594 570.164063 364.324219 566.886719 374.480469 Z M 566.886719 374.480469 "/>
<path style=" stroke:none;fill-rule:evenodd;fill:rgb(93.75%,72.851563%,0%);fill-opacity:1;" d="M 431.492188 331.730469 C 428.109375 325.398438 430.503906 317.523438 436.832031 314.144531 C 442.644531 311.039063 449.757813 312.804688 453.5 318.015625 C 452.914063 314.648438 454.417969 311.195313 457.480469 309.5625 C 461.339844 307.503906 466.210938 309.097656 468.363281 313.121094 C 468.730469 313.8125 468.992188 314.527344 469.160156 315.246094 C 469.488281 313.664063 470.464844 312.257813 471.964844 311.453125 C 474.71875 309.984375 478.191406 311.121094 479.726563 313.996094 C 480.453125 315.351563 480.613281 316.851563 480.292969 318.210938 C 480.476563 318.058594 480.683594 317.914063 480.902344 317.800781 C 482.722656 316.828125 485.023438 317.578125 486.035156 319.480469 C 486.757813 320.828125 486.632813 322.402344 485.84375 323.546875 C 487.152344 323.03125 488.691406 323.609375 489.398438 324.929688 C 490.15625 326.351563 489.667969 328.089844 488.308594 328.816406 C 486.949219 329.539063 485.230469 328.984375 484.472656 327.5625 C 483.972656 326.628906 484.011719 325.558594 484.488281 324.726563 C 482.683594 325.628906 480.441406 324.867188 479.445313 322.996094 C 479.054688 322.269531 478.910156 321.476563 478.984375 320.71875 C 478.574219 321.164063 478.085938 321.558594 477.519531 321.859375 C 474.765625 323.328125 471.292969 322.191406 469.757813 319.320313 C 469.566406 318.964844 469.414063 318.597656 469.300781 318.226563 C 468.976563 320.6875 467.558594 322.921875 465.265625 324.144531 C 461.972656 325.902344 457.941406 324.996094 455.496094 322.191406 C 457.058594 327.914063 454.53125 334.160156 449.078125 337.074219 C 442.746094 340.453125 434.871094 338.058594 431.492188 331.730469 Z M 431.492188 331.730469 "/>
<path style=" stroke:none;fill-rule:evenodd;fill:rgb(5.883789%,23.143005%,57.226563%);fill-opacity:1;" d="M 62.71875 432.121094 L 62.71875 409.703125 L 69.980469 409.703125 C 72.730469 409.703125 74.527344 409.820313 75.359375 410.046875 C 76.644531 410.378906 77.726563 411.109375 78.589844 412.238281 C 79.457031 413.367188 79.890625 414.824219 79.890625 416.601563 C 79.890625 417.980469 79.640625 419.136719 79.140625 420.070313 C 78.640625 421.011719 78.007813 421.746094 77.234375 422.285156 C 76.464844 422.820313 75.683594 423.171875 74.890625 423.34375 C 73.808594 423.558594 72.242188 423.664063 70.195313 423.664063 L 67.246094 423.664063 L 67.246094 432.121094 Z M 67.246094 413.496094 L 67.246094 419.859375 L 69.71875 419.859375 C 71.503906 419.859375 72.699219 419.742188 73.296875 419.507813 C 73.898438 419.273438 74.367188 418.910156 74.714844 418.40625 C 75.050781 417.90625 75.222656 417.328125 75.222656 416.664063 C 75.222656 415.847656 74.984375 415.175781 74.503906 414.644531 C 74.027344 414.117188 73.417969 413.78125 72.6875 413.652344 C 72.144531 413.550781 71.058594 413.496094 69.429688 413.496094 Z M 94.609375 432.121094 L 94.609375 409.703125 L 99.140625 409.703125 L 99.140625 418.527344 L 108.007813 418.527344 L 108.007813 409.703125 L 112.53125 409.703125 L 112.53125 432.121094 L 108.007813 432.121094 L 108.007813 422.320313 L 99.140625 422.320313 L 99.140625 432.121094 Z M 128.066406 409.703125 L 132.589844 409.703125 L 132.589844 432.121094 L 128.066406 432.121094 Z M 148.019531 432.121094 L 148.019531 409.890625 L 152.546875 409.890625 L 152.546875 428.347656 L 163.796875 428.347656 L 163.796875 432.121094 Z M 177.878906 409.703125 L 182.40625 409.703125 L 182.40625 432.121094 L 177.878906 432.121094 Z M 197.710938 432.121094 L 197.710938 409.703125 L 204.972656 409.703125 C 207.722656 409.703125 209.519531 409.820313 210.355469 410.046875 C 211.636719 410.378906 212.71875 411.109375 213.585938 412.238281 C 214.453125 413.367188 214.882813 414.824219 214.882813 416.601563 C 214.882813 417.980469 214.632813 419.136719 214.132813 420.070313 C 213.632813 421.011719 213 421.746094 212.226563 422.285156 C 211.460938 422.820313 210.679688 423.171875 209.886719 423.34375 C 208.804688 423.558594 207.238281 423.664063 205.1875 423.664063 L 202.238281 423.664063 L 202.238281 432.121094 Z M 202.238281 413.496094 L 202.238281 419.859375 L 204.710938 419.859375 C 206.496094 419.859375 207.691406 419.742188 208.292969 419.507813 C 208.894531 419.273438 209.363281 418.910156 209.707031 418.40625 C 210.046875 417.90625 210.21875 417.328125 210.21875 416.664063 C 210.21875 415.847656 209.976563 415.175781 209.496094 414.644531 C 209.023438 414.117188 208.414063 413.78125 207.679688 413.652344 C 207.136719 413.550781 206.054688 413.496094 204.425781 413.496094 Z M 229.59375 432.121094 L 229.59375 409.703125 L 236.855469 409.703125 C 239.605469 409.703125 241.398438 409.820313 242.234375 410.046875 C 243.519531 410.378906 244.597656 411.109375 245.464844 412.238281 C 246.332031 413.367188 246.765625 414.824219 246.765625 416.601563 C 246.765625 417.980469 246.515625 419.136719 246.015625 420.070313 C 245.511719 421.011719 244.882813 421.746094 244.109375 422.285156 C 243.339844 422.820313 242.558594 423.171875 241.765625 423.34375 C 240.683594 423.558594 239.117188 423.664063 237.066406 423.664063 L 234.117188 423.664063 L 234.117188 432.121094 Z M 234.117188 413.496094 L 234.117188 419.859375 L 236.59375 419.859375 C 238.378906 419.859375 239.574219 419.742188 240.171875 419.507813 C 240.773438 419.273438 241.242188 418.910156 241.589844 418.40625 C 241.925781 417.90625 242.097656 417.328125 242.097656 416.664063 C 242.097656 415.847656 241.859375 415.175781 241.378906 414.644531 C 240.902344 414.117188 240.292969 413.78125 239.5625 413.652344 C 239.019531 413.550781 237.933594 413.496094 236.304688 413.496094 Z M 261.332031 409.703125 L 265.859375 409.703125 L 265.859375 432.121094 L 261.332031 432.121094 Z M 281.207031 432.121094 L 281.207031 409.703125 L 285.613281 409.703125 L 294.789063 424.675781 L 294.789063 409.703125 L 298.996094 409.703125 L 298.996094 432.121094 L 294.449219 432.121094 L 285.414063 417.503906 L 285.414063 432.121094 Z M 314.773438 432.121094 L 314.773438 409.703125 L 331.390625 409.703125 L 331.390625 413.496094 L 319.296875 413.496094 L 319.296875 418.46875 L 330.550781 418.46875 L 330.550781 422.246094 L 319.296875 422.246094 L 319.296875 428.347656 L 331.820313 428.347656 L 331.820313 432.121094 Z M 345.503906 424.828125 L 349.910156 424.398438 C 350.171875 425.882813 350.710938 426.96875 351.523438 427.664063 C 352.332031 428.351563 353.421875 428.699219 354.800781 428.699219 C 356.257813 428.699219 357.359375 428.394531 358.09375 427.773438 C 358.835938 427.15625 359.207031 426.433594 359.207031 425.609375 C 359.207031 425.078125 359.050781 424.628906 358.738281 424.257813 C 358.429688 423.882813 357.886719 423.558594 357.109375 423.289063 C 356.582031 423.101563 355.371094 422.777344 353.484375 422.308594 C 351.058594 421.703125 349.355469 420.964844 348.382813 420.089844 C 347.003906 418.855469 346.316406 417.351563 346.316406 415.578125 C 346.316406 414.433594 346.636719 413.371094 347.285156 412.371094 C 347.933594 411.382813 348.867188 410.621094 350.082031 410.101563 C 351.304688 409.585938 352.769531 409.324219 354.492188 409.324219 C 357.3125 409.324219 359.425781 409.941406 360.851563 411.171875 C 362.269531 412.410156 363.015625 414.054688 363.089844 416.117188 L 358.566406 416.316406 C 358.371094 415.160156 357.953125 414.328125 357.316406 413.828125 C 356.679688 413.324219 355.726563 413.074219 354.453125 413.074219 C 353.136719 413.074219 352.101563 413.339844 351.363281 413.882813 C 350.882813 414.226563 350.640625 414.691406 350.640625 415.269531 C 350.640625 415.804688 350.863281 416.257813 351.3125 416.632813 C 351.882813 417.113281 353.269531 417.613281 355.476563 418.132813 C 357.675781 418.652344 359.304688 419.191406 360.359375 419.742188 C 361.414063 420.300781 362.238281 421.058594 362.839844 422.027344 C 363.433594 422.992188 363.734375 424.179688 363.734375 425.597656 C 363.734375 426.878906 363.378906 428.085938 362.660156 429.203125 C 361.949219 430.324219 360.941406 431.160156 359.632813 431.703125 C 358.328125 432.246094 356.703125 432.519531 354.753906 432.519531 C 351.917969 432.519531 349.742188 431.867188 348.222656 430.558594 C 346.707031 429.246094 345.796875 427.339844 345.503906 424.828125 Z M 61.425781 451.289063 C 61.425781 449.632813 61.671875 448.242188 62.167969 447.121094 C 62.535156 446.289063 63.042969 445.546875 63.679688 444.890625 C 64.320313 444.234375 65.019531 443.746094 65.78125 443.429688 C 66.792969 442.996094 67.960938 442.785156 69.285156 442.785156 C 71.679688 442.785156 73.59375 443.527344 75.03125 445.015625 C 76.46875 446.496094 77.191406 448.566406 77.191406 451.203125 C 77.191406 453.835938 76.472656 455.886719 75.046875 457.371094 C 73.621094 458.847656 71.714844 459.589844 69.328125 459.589844 C 66.910156 459.589844 64.988281 458.851563 63.5625 457.382813 C 62.136719 455.90625 61.425781 453.871094 61.425781 451.289063 Z M 64.804688 451.179688 C 64.804688 453.019531 65.230469 454.414063 66.082031 455.363281 C 66.933594 456.3125 68.011719 456.789063 69.316406 456.789063 C 70.625 456.789063 71.699219 456.316406 72.539063 455.371094 C 73.375 454.429688 73.796875 453.019531 73.796875 451.132813 C 73.796875 449.273438 73.386719 447.882813 72.574219 446.964844 C 71.753906 446.046875 70.671875 445.589844 69.316406 445.589844 C 67.964844 445.589844 66.875 446.054688 66.046875 446.984375 C 65.222656 447.910156 64.804688 449.308594 64.804688 451.179688 Z M 79.78125 459.316406 L 79.78125 443.0625 L 82.976563 443.0625 L 89.628906 453.914063 L 89.628906 443.0625 L 92.679688 443.0625 L 92.679688 459.316406 L 89.382813 459.316406 L 82.832031 448.714844 L 82.832031 459.316406 Z M 96.148438 459.316406 L 96.148438 443.0625 L 108.195313 443.0625 L 108.195313 445.8125 L 99.429688 445.8125 L 99.429688 449.414063 L 107.585938 449.414063 L 107.585938 452.152344 L 99.429688 452.152344 L 99.429688 456.574219 L 108.507813 456.574219 L 108.507813 459.316406 Z M 121.253906 459.316406 L 121.253906 445.8125 L 116.433594 445.8125 L 116.433594 443.0625 L 129.347656 443.0625 L 129.347656 445.8125 L 124.539063 445.8125 L 124.539063 459.316406 Z M 130.390625 451.289063 C 130.390625 449.632813 130.636719 448.242188 131.132813 447.121094 C 131.503906 446.289063 132.007813 445.546875 132.648438 444.890625 C 133.289063 444.234375 133.988281 443.746094 134.746094 443.429688 C 135.761719 442.996094 136.925781 442.785156 138.253906 442.785156 C 140.644531 442.785156 142.5625 443.527344 144 445.015625 C 145.4375 446.496094 146.15625 448.566406 146.15625 451.203125 C 146.15625 453.835938 145.441406 455.886719 144.011719 457.371094 C 142.589844 458.847656 140.679688 459.589844 138.296875 459.589844 C 135.878906 459.589844 133.957031 458.851563 132.53125 457.382813 C 131.105469 455.90625 130.390625 453.871094 130.390625 451.289063 Z M 133.773438 451.179688 C 133.773438 453.019531 134.199219 454.414063 135.046875 455.363281 C 135.898438 456.3125 136.976563 456.789063 138.285156 456.789063 C 139.589844 456.789063 140.664063 456.316406 141.507813 455.371094 C 142.339844 454.429688 142.761719 453.019531 142.761719 451.132813 C 142.761719 449.273438 142.351563 447.882813 141.539063 446.964844 C 140.722656 446.046875 139.636719 445.589844 138.285156 445.589844 C 136.929688 445.589844 135.839844 446.054688 135.011719 446.984375 C 134.1875 447.910156 133.773438 449.308594 133.773438 451.179688 Z M 151.023438 459.316406 L 147.144531 443.0625 L 150.5 443.0625 L 152.953125 454.226563 L 155.921875 443.0625 L 159.824219 443.0625 L 162.671875 454.414063 L 165.167969 443.0625 L 168.472656 443.0625 L 164.523438 459.316406 L 161.042969 459.316406 L 157.808594 447.164063 L 154.582031 459.316406 Z M 170.179688 459.316406 L 170.179688 443.0625 L 173.371094 443.0625 L 180.023438 453.914063 L 180.023438 443.0625 L 183.074219 443.0625 L 183.074219 459.316406 L 179.777344 459.316406 L 173.226563 448.714844 L 173.226563 459.316406 Z M 186.441406 456.199219 L 189.554688 456.199219 L 189.554688 458.429688 C 189.554688 459.328125 189.480469 460.039063 189.324219 460.5625 C 189.167969 461.078125 188.875 461.550781 188.445313 461.964844 C 188.011719 462.378906 187.460938 462.703125 186.796875 462.941406 L 186.1875 461.652344 C 186.816406 461.445313 187.261719 461.164063 187.527344 460.800781 C 187.796875 460.4375 187.9375 459.945313 187.949219 459.316406 L 186.441406 459.316406 Z M 198.492188 451.289063 C 198.492188 449.632813 198.738281 448.242188 199.234375 447.121094 C 199.605469 446.289063 200.109375 445.546875 200.75 444.890625 C 201.386719 444.234375 202.089844 443.746094 202.847656 443.429688 C 203.863281 442.996094 205.027344 442.785156 206.351563 442.785156 C 208.746094 442.785156 210.660156 443.527344 212.101563 445.015625 C 213.539063 446.496094 214.257813 448.566406 214.257813 451.203125 C 214.257813 453.835938 213.542969 455.886719 212.113281 457.371094 C 210.6875 458.847656 208.78125 459.589844 206.398438 459.589844 C 203.980469 459.589844 202.058594 458.851563 200.632813 457.382813 C 199.203125 455.90625 198.492188 453.871094 198.492188 451.289063 Z M 201.871094 451.179688 C 201.871094 453.019531 202.300781 454.414063 203.148438 455.363281 C 204 456.3125 205.078125 456.789063 206.386719 456.789063 C 207.691406 456.789063 208.765625 456.316406 209.605469 455.371094 C 210.441406 454.429688 210.863281 453.019531 210.863281 451.132813 C 210.863281 449.273438 210.453125 447.882813 209.640625 446.964844 C 208.824219 446.046875 207.738281 445.589844 206.386719 445.589844 C 205.03125 445.589844 203.941406 446.054688 203.113281 446.984375 C 202.289063 447.910156 201.871094 449.308594 201.871094 451.179688 Z M 216.851563 459.316406 L 216.851563 443.0625 L 220.042969 443.0625 L 226.695313 453.914063 L 226.695313 443.0625 L 229.746094 443.0625 L 229.746094 459.316406 L 226.449219 459.316406 L 219.898438 448.714844 L 219.898438 459.316406 Z M 233.214844 459.316406 L 233.214844 443.0625 L 245.261719 443.0625 L 245.261719 445.8125 L 236.496094 445.8125 L 236.496094 449.414063 L 244.65625 449.414063 L 244.65625 452.152344 L 236.496094 452.152344 L 236.496094 456.574219 L 245.574219 456.574219 L 245.574219 459.316406 Z M 254.667969 459.316406 L 254.667969 443.0625 L 259.929688 443.0625 C 261.925781 443.0625 263.226563 443.144531 263.832031 443.308594 C 264.761719 443.550781 265.546875 444.078125 266.171875 444.898438 C 266.800781 445.714844 267.117188 446.769531 267.117188 448.0625 C 267.117188 449.058594 266.933594 449.902344 266.570313 450.578125 C 266.207031 451.257813 265.75 451.789063 265.1875 452.179688 C 264.632813 452.570313 264.066406 452.824219 263.488281 452.949219 C 262.707031 453.105469 261.570313 453.183594 260.085938 453.183594 L 257.945313 453.183594 L 257.945313 459.316406 Z M 257.945313 445.8125 L 257.945313 450.421875 L 259.742188 450.421875 C 261.035156 450.421875 261.898438 450.339844 262.335938 450.164063 C 262.773438 449.996094 263.113281 449.734375 263.363281 449.371094 C 263.605469 449.007813 263.734375 448.585938 263.734375 448.105469 C 263.734375 447.515625 263.558594 447.027344 263.210938 446.644531 C 262.863281 446.261719 262.421875 446.019531 261.894531 445.921875 C 261.5 445.847656 260.710938 445.8125 259.53125 445.8125 Z M 269.816406 459.316406 L 269.816406 443.0625 L 276.726563 443.0625 C 278.460938 443.0625 279.722656 443.210938 280.507813 443.496094 C 281.296875 443.789063 281.929688 444.3125 282.402344 445.054688 C 282.875 445.804688 283.109375 446.65625 283.109375 447.617188 C 283.109375 448.835938 282.75 449.847656 282.035156 450.640625 C 281.320313 451.433594 280.246094 451.9375 278.820313 452.140625 C 279.53125 452.554688 280.117188 453.011719 280.578125 453.507813 C 281.039063 454.003906 281.660156 454.878906 282.441406 456.144531 L 284.429688 459.316406 L 280.503906 459.316406 L 278.132813 455.777344 C 277.289063 454.511719 276.714844 453.71875 276.402344 453.390625 C 276.09375 453.058594 275.765625 452.835938 275.417969 452.710938 C 275.066406 452.589844 274.519531 452.53125 273.761719 452.53125 L 273.101563 452.53125 L 273.101563 459.316406 Z M 273.101563 449.933594 L 275.527344 449.933594 C 277.097656 449.933594 278.085938 449.871094 278.476563 449.738281 C 278.867188 449.605469 279.171875 449.371094 279.398438 449.050781 C 279.617188 448.722656 279.730469 448.316406 279.730469 447.828125 C 279.730469 447.28125 279.582031 446.84375 279.289063 446.503906 C 279 446.164063 278.585938 445.953125 278.054688 445.867188 C 277.789063 445.828125 276.988281 445.8125 275.65625 445.8125 L 273.101563 445.8125 Z M 285.539063 451.289063 C 285.539063 449.632813 285.785156 448.242188 286.28125 447.121094 C 286.652344 446.289063 287.15625 445.546875 287.792969 444.890625 C 288.433594 444.234375 289.132813 443.746094 289.894531 443.429688 C 290.910156 442.996094 292.074219 442.785156 293.398438 442.785156 C 295.792969 442.785156 297.707031 443.527344 299.144531 445.015625 C 300.582031 446.496094 301.304688 448.566406 301.304688 451.203125 C 301.304688 453.835938 300.585938 455.886719 299.160156 457.371094 C 297.734375 458.847656 295.828125 459.589844 293.441406 459.589844 C 291.023438 459.589844 289.101563 458.851563 287.675781 457.382813 C 286.25 455.90625 285.539063 453.871094 285.539063 451.289063 Z M 288.917969 451.179688 C 288.917969 453.019531 289.347656 454.414063 290.195313 455.363281 C 291.046875 456.3125 292.125 456.789063 293.433594 456.789063 C 294.738281 456.789063 295.8125 456.316406 296.652344 455.371094 C 297.488281 454.429688 297.910156 453.019531 297.910156 451.132813 C 297.910156 449.273438 297.5 447.882813 296.6875 446.964844 C 295.871094 446.046875 294.785156 445.589844 293.433594 445.589844 C 292.078125 445.589844 290.988281 446.054688 290.160156 446.984375 C 289.335938 447.910156 288.917969 449.308594 288.917969 451.179688 Z M 303.855469 443.0625 L 309.851563 443.0625 C 311.203125 443.0625 312.234375 443.164063 312.945313 443.371094 C 313.898438 443.652344 314.714844 444.152344 315.390625 444.871094 C 316.070313 445.585938 316.589844 446.464844 316.945313 447.496094 C 317.296875 448.539063 317.476563 449.820313 317.476563 451.347656 C 317.476563 452.683594 317.3125 453.835938 316.976563 454.804688 C 316.574219 455.984375 315.992188 456.941406 315.238281 457.671875 C 314.667969 458.230469 313.902344 458.660156 312.933594 458.972656 C 312.207031 459.203125 311.242188 459.316406 310.023438 459.316406 L 303.855469 459.316406 Z M 307.132813 445.8125 L 307.132813 456.574219 L 309.582031 456.574219 C 310.5 456.574219 311.160156 456.527344 311.570313 456.421875 C 312.097656 456.285156 312.542969 456.0625 312.894531 455.746094 C 313.246094 455.429688 313.53125 454.902344 313.753906 454.175781 C 313.972656 453.449219 314.085938 452.453125 314.085938 451.199219 C 314.085938 449.941406 313.972656 448.980469 313.753906 448.308594 C 313.53125 447.632813 313.21875 447.105469 312.824219 446.730469 C 312.421875 446.355469 311.914063 446.101563 311.300781 445.96875 C 310.84375 445.863281 309.945313 445.8125 308.605469 445.8125 Z M 320.238281 443.0625 L 323.519531 443.0625 L 323.519531 451.863281 C 323.519531 453.261719 323.5625 454.164063 323.640625 454.578125 C 323.78125 455.246094 324.117188 455.78125 324.644531 456.179688 C 325.171875 456.585938 325.894531 456.789063 326.8125 456.789063 C 327.742188 456.789063 328.445313 456.597656 328.917969 456.214844 C 329.394531 455.835938 329.675781 455.367188 329.769531 454.816406 C 329.871094 454.257813 329.914063 453.339844 329.914063 452.054688 L 329.914063 443.0625 L 333.195313 443.0625 L 333.195313 451.601563 C 333.195313 453.550781 333.105469 454.929688 332.929688 455.734375 C 332.753906 456.539063 332.425781 457.21875 331.949219 457.773438 C 331.472656 458.328125 330.835938 458.769531 330.039063 459.097656 C 329.242188 459.429688 328.195313 459.589844 326.910156 459.589844 C 325.359375 459.589844 324.179688 459.414063 323.378906 459.054688 C 322.578125 458.695313 321.945313 458.230469 321.480469 457.65625 C 321.015625 457.085938 320.707031 456.484375 320.5625 455.855469 C 320.34375 454.925781 320.238281 453.550781 320.238281 451.730469 Z M 347.058594 453.339844 L 350.234375 454.347656 C 349.746094 456.121094 348.9375 457.4375 347.800781 458.300781 C 346.667969 459.160156 345.226563 459.589844 343.484375 459.589844 C 341.328125 459.589844 339.550781 458.851563 338.164063 457.382813 C 336.773438 455.90625 336.078125 453.886719 336.078125 451.335938 C 336.078125 448.628906 336.777344 446.53125 338.175781 445.03125 C 339.570313 443.535156 341.40625 442.785156 343.683594 442.785156 C 345.671875 442.785156 347.285156 443.371094 348.527344 444.550781 C 349.269531 445.242188 349.820313 446.242188 350.191406 447.539063 L 346.941406 448.316406 C 346.753906 447.472656 346.351563 446.808594 345.738281 446.320313 C 345.132813 445.828125 344.390625 445.589844 343.515625 445.589844 C 342.316406 445.589844 341.335938 446.019531 340.585938 446.886719 C 339.835938 447.746094 339.460938 449.152344 339.460938 451.089844 C 339.460938 453.140625 339.828125 454.609375 340.570313 455.476563 C 341.308594 456.351563 342.269531 456.789063 343.449219 456.789063 C 344.324219 456.789063 345.074219 456.511719 345.699219 455.953125 C 346.328125 455.402344 346.777344 454.527344 347.058594 453.339844 Z M 356.707031 459.316406 L 356.707031 445.8125 L 351.886719 445.8125 L 351.886719 443.0625 L 364.804688 443.0625 L 364.804688 445.8125 L 359.992188 445.8125 L 359.992188 459.316406 Z M 356.707031 459.316406 "/>
</g>
</svg>
